<svg width="25" height="24" viewBox="0 0 25 24" fill="none" xmlns="http://www.w3.org/2000/svg">
<path d="M21.9267 11.0952L4.92674 3.09517C4.75556 3.01462 4.56503 2.98428 4.3773 3.00768C4.18956 3.03108 4.01232 3.10725 3.86614 3.22735C3.71996 3.34745 3.61086 3.50656 3.55149 3.68619C3.49212 3.86582 3.48492 4.05861 3.53074 4.24217L4.74274 9.09117L12.5007 12.0002L4.74274 14.9092L3.53074 19.7582C3.48406 19.9419 3.49066 20.135 3.54975 20.3151C3.60885 20.4952 3.718 20.6547 3.86444 20.7751C4.01088 20.8954 4.18855 20.9715 4.37667 20.9946C4.5648 21.0176 4.75559 20.9866 4.92674 20.9052L21.9267 12.9052C22.0985 12.8244 22.2438 12.6964 22.3455 12.5362C22.4473 12.3759 22.5013 12.19 22.5013 12.0002C22.5013 11.8103 22.4473 11.6244 22.3455 11.4642C22.2438 11.3039 22.0985 11.1759 21.9267 11.0952Z" fill="white"/>
</svg>
