<svg width="90" height="90" viewBox="0 0 90 90" fill="none" xmlns="http://www.w3.org/2000/svg">
<g clip-path="url(#clip0_516_1205)">
<path fill-rule="evenodd" clip-rule="evenodd" d="M42.7693 46.4586L49.7725 37.8768C51.3662 35.8379 50.6121 34.1725 49.5658 29.7597C49.1303 28.1408 49.0981 26.4398 49.4721 24.8056C49.846 23.1714 50.6147 21.6537 51.7108 20.3852C58.3129 13.4785 71.7418 0 71.7418 0L73.5119 1.38686L59.6667 19.1128L62.6279 21.4261L77.1376 4.21711L78.9298 5.61501L65.5933 23.7421L68.5559 26.0554L83.1193 8.88916L84.7736 10.1906L71.5171 28.3728L74.4824 30.6861L88.3276 12.9588L89.9516 14.2257C89.9516 14.2257 80.3911 30.5717 75.3385 38.726C74.3557 40.1221 73.0419 41.2526 71.5148 42.0162C69.9878 42.7798 68.2952 43.1528 66.5886 43.1017C62.0489 43.1279 60.2719 42.7681 58.6521 44.8415L50.1048 55.3188C59.2697 66.4261 67.1911 76.0569 70.9877 80.9234C71.6377 81.7577 72.0391 82.7584 72.1459 83.8106C72.2527 84.8628 72.0606 85.9238 71.5915 86.8717C71.1225 87.8196 70.3955 88.616 69.4942 89.1694C68.5929 89.7227 67.5538 90.0106 66.4962 90C65.6504 90.0055 64.8148 89.8143 64.0554 89.4416C63.296 89.0688 62.6337 88.5247 62.1206 87.8522L30.7838 50.0911C30.7838 50.0911 27.3125 52.7863 23.4952 55.782C11.6035 36.3466 -0.000142515 12.0641 -0.000142515 3.4644C-0.000142515 2.98465 -0.126973 0 2.74739 0C3.23831 0.00952196 3.72064 0.130506 4.15793 0.35381C4.59522 0.577113 4.97604 0.896893 5.27159 1.28898C7.17956 3.69601 25.5727 25.7066 42.7693 46.4586ZM31.6978 60.0225L39.0195 68.8896L23.5972 87.8397C22.6707 89.0011 21.3233 89.75 19.8478 89.9237C18.3723 90.0974 16.8879 89.6819 15.717 88.7674C14.5461 87.8529 13.7833 86.5134 13.5944 85.0397C13.4055 83.5661 13.8057 82.0774 14.7081 80.8972L31.6978 60.0225Z" fill="#E65640"/>
</g>
<defs>
<clipPath id="clip0_516_1205">
<rect width="89.9518" height="90" fill="white"/>
</clipPath>
</defs>
</svg>
