<svg width="90" height="90" viewBox="0 0 90 90" fill="none" xmlns="http://www.w3.org/2000/svg">
<g clip-path="url(#clip0_516_1217)">
<path fill-rule="evenodd" clip-rule="evenodd" d="M37.502 86.251C37.5017 85.266 37.6955 84.2905 38.0723 83.3804C38.4491 82.4702 39.0016 81.6432 39.6981 80.9467C40.3947 80.2502 41.2216 79.6977 42.1318 79.3209C43.0419 78.9441 44.0174 78.7503 45.0024 78.7506H52.5028C54.4919 78.7513 56.3993 79.5417 57.8057 80.9481C59.2122 82.3546 60.0026 84.262 60.0033 86.251V90.0012H37.502V86.251ZM67.5024 86.251C67.5021 85.266 67.6959 84.2905 68.0727 83.3804C68.4495 82.4702 69.002 81.6432 69.6985 80.9467C70.3951 80.2502 71.222 79.6977 72.1322 79.3209C73.0423 78.9441 74.0178 78.7503 75.0028 78.7506H82.5033C84.4923 78.7513 86.3997 79.5417 87.8061 80.9481C89.2126 82.3546 90.003 84.262 90.0037 86.251V90.0012H67.5L67.5024 86.251ZM25.3462 33.7506C27.5616 33.7222 29.7377 33.1616 31.6911 32.1162C34.5226 30.5416 41.7971 25.9546 44.7618 24.1516C45.1528 23.9136 45.6167 23.8254 46.0678 23.9034C46.5188 23.9813 46.9263 24.2201 47.2147 24.5754L47.2452 24.617C47.5437 24.9846 47.6928 25.4512 47.6629 25.9238C47.633 26.3964 47.4264 26.8404 47.084 27.1676C44.752 29.4067 37.9223 35.8981 34.4469 39.2159C32.4984 41.0934 31.3519 43.6521 31.2476 46.3559C30.8909 54.632 30.2704 72.2763 30.0065 79.4799C29.9756 80.2916 29.6314 81.0598 29.0463 81.6233C28.4612 82.1867 27.6806 82.5017 26.8683 82.502C26.0722 82.4866 25.3103 82.1755 24.7309 81.6293C24.1516 81.0831 23.7961 80.3409 23.7338 79.5471C23.3172 75.8677 22.5 67.2471 22.136 63.7522C22.1412 63.1574 21.9145 62.5839 21.5041 62.1534C21.0936 61.7228 20.5316 61.4691 19.9372 61.4459C18.7974 61.4459 17.9753 62.2937 17.8788 63.7303C17.6479 67.1861 16.882 75.908 16.5974 79.5532C16.5399 80.3509 16.1835 81.0976 15.5995 81.644C15.0155 82.1904 14.2468 82.4964 13.447 82.5008C12.6314 82.5009 11.8474 82.1856 11.2589 81.621C10.6704 81.0564 10.323 80.2862 10.2892 79.4713C9.92277 70.6883 8.90521 45.8563 8.90521 45.8563L4.07636 54.5929C3.8228 55.0522 3.4116 55.4041 2.91873 55.5838C2.42585 55.7634 1.88462 55.7586 1.39503 55.5702C0.889247 55.3754 0.47441 54.9987 0.231743 54.5141C-0.0109232 54.0294 -0.0639427 53.4716 0.0830664 52.9499L4.747 36.4759C4.97021 35.691 5.44328 35.0003 6.09447 34.5084C6.74566 34.0166 7.53946 33.7506 8.3555 33.7506H25.3462ZM48.7502 60.0008C50.4189 60.0011 52.0501 60.4961 53.4374 61.4234C54.8248 62.3506 55.906 63.6684 56.5444 65.2102C57.1828 66.7519 57.3498 68.4483 57.0241 70.085C56.6984 71.7216 55.8947 73.2248 54.7147 74.4047C53.5346 75.5846 52.0312 76.388 50.3946 76.7135C48.7579 77.0389 47.0615 76.8718 45.5199 76.2331C43.9782 75.5945 42.6606 74.5131 41.7335 73.1256C40.8064 71.7381 40.3116 70.1069 40.3116 68.4382C40.3126 66.2005 41.202 64.0548 42.7844 62.4727C44.3667 60.8906 46.5126 60.0015 48.7502 60.0008ZM78.7506 60.0008C80.4194 60.0008 82.0506 60.4957 83.4381 61.4228C84.8257 62.3499 85.9071 63.6676 86.5457 65.2093C87.1843 66.7511 87.3514 68.4475 87.0258 70.0842C86.7003 71.7209 85.8967 73.2243 84.7167 74.4043C83.5367 75.5842 82.0333 76.3878 80.3967 76.7134C78.76 77.0389 77.0635 76.8719 75.5218 76.2333C73.9801 75.5947 72.6623 74.5132 71.7352 73.1257C70.8081 71.7382 70.3133 70.1069 70.3133 68.4382C70.3142 66.2007 71.2035 64.0552 72.7856 62.4731C74.3677 60.891 76.5132 60.0018 78.7506 60.0008ZM90.0012 56.2506H37.502V48.7502H63.751V45H75.0041V48.7502H82.5045V7.50041H7.50041V23.8352L0 31.3356V0H90.0012V56.2506ZM63.751 37.502H52.5004V33.7518H63.751V37.502ZM20.1558 14.9996C21.8244 15.0003 23.4552 15.4957 24.8422 16.4232C26.2292 17.3507 27.3101 18.6686 27.9482 20.2104C28.5863 21.7521 28.7529 23.4484 28.427 25.0848C28.1011 26.7212 27.2974 28.2242 26.1174 29.4039C24.9374 30.5836 23.4341 31.3869 21.7976 31.7123C20.1611 32.0377 18.4649 31.8706 16.9233 31.232C15.3818 30.5935 14.0642 29.5123 13.1371 28.125C12.21 26.7377 11.715 25.1067 11.7148 23.4382C11.7161 21.2001 12.6059 19.0541 14.1887 17.4718C15.7715 15.8894 17.9177 15.0002 20.1558 14.9996ZM75.0041 30.0004H52.5004V26.2502H75.0041V30.0004ZM75.0041 22.5H52.5004V18.7498H75.0041V22.5Z" fill="#E65640"/>
</g>
<defs>
<clipPath id="clip0_516_1217">
<rect width="90.0012" height="90" fill="white"/>
</clipPath>
</defs>
</svg>
