<svg width="16" height="16" viewBox="0 0 16 16" fill="none" xmlns="http://www.w3.org/2000/svg">
<g clip-path="url(#clip0_549_1093)">
<path d="M8.71358 6.25694L8.72827 6.24613L7.98087 4.90234L7.21484 6.24786L7.21725 6.23013L5.72553 5.80137L6.14876 7.28699L6.13758 7.27272L4.77539 8.01024L6.13934 8.76548L6.12158 8.76267L5.68673 10.2349L7.19271 9.81737L7.17824 9.8284L7.92608 11.1722L8.69145 9.82645L8.68925 9.84418L10.181 10.2727L9.75797 8.78753L9.76871 8.80159L11.1311 8.06407L9.76695 7.30883L9.78514 7.31121L10.2193 5.83942L8.71358 6.25694Z" fill="white"/>
<path d="M2.52496 8.48792L2.52365 8.38867H2.52343C2.31587 8.87019 1.75214 9.0944 1.26425 8.88943C1.04441 8.79732 0.878057 8.63364 0.780084 8.43775C0.423701 8.74716 0.169892 9.1491 0.0410156 9.59083C0.492303 10.1275 1.17241 10.4698 1.93428 10.47C1.96671 10.47 1.99893 10.4689 2.03137 10.4676C2.01252 10.4851 1.99345 10.5022 1.97482 10.5208C1.44945 11.0388 1.21362 11.7325 1.26293 12.4105C1.6557 12.6133 2.10151 12.7108 2.55367 12.6838C2.40704 12.2179 2.64419 11.7115 3.11082 11.5258C3.33986 11.4347 3.58359 11.438 3.79882 11.5158C3.0968 10.6825 2.64726 9.6371 2.562 8.49332L2.52496 8.48792Z" fill="white"/>
<path d="M11.4203 3.96649L11.4574 3.93925C11.3103 3.4733 11.5477 2.96627 12.0143 2.78054C12.265 2.68108 12.5324 2.69341 12.7613 2.79308C12.8139 2.30422 12.7128 1.8173 12.4838 1.39417C11.7631 1.312 11.0133 1.54184 10.4606 2.08714C10.4378 2.10984 10.4154 2.13298 10.3935 2.15676C10.3944 2.13125 10.3952 2.10552 10.3952 2.07979C10.3955 1.34206 10.0612 0.681733 9.53453 0.236328C9.09705 0.380544 8.70187 0.644544 8.40335 1.00757C8.82658 1.24044 9.01244 1.75503 8.81869 2.20454C8.72269 2.42681 8.55063 2.592 8.3457 2.68757L8.35842 2.75806C9.51677 2.83871 10.5754 3.27914 11.4203 3.96649Z" fill="white"/>
<path d="M8.79201 14.5995C8.70303 14.8064 8.54763 14.9649 8.36133 15.0635C8.6719 15.4338 9.0844 15.7002 9.54029 15.8375C10.0895 15.3925 10.4402 14.7182 10.4405 13.9625C10.4405 13.9303 10.4394 13.8983 10.4378 13.8669C10.4556 13.8855 10.4731 13.9043 10.4915 13.9225C11.0268 14.4509 11.7472 14.6831 12.4468 14.623C12.6557 14.2215 12.7501 13.7638 12.7089 13.3033C12.2182 13.4957 11.6617 13.2611 11.4638 12.7774C11.391 12.5995 11.3777 12.4124 11.4134 12.2373C10.586 12.9078 9.55453 13.3404 8.42599 13.4328C8.81371 13.6775 8.97788 14.1681 8.79201 14.5995Z" fill="white"/>
<path d="M3.82902 13.2831C3.61839 13.367 3.39527 13.3709 3.19341 13.3112C3.15746 13.7813 3.26332 14.2472 3.48689 14.653C4.19001 14.7179 4.91549 14.4857 5.45379 13.9547C5.4768 13.9322 5.49894 13.9086 5.52086 13.8853C5.5202 13.911 5.51889 13.9363 5.51889 13.962C5.51867 14.7023 5.85554 15.3635 6.38486 15.8087C6.81313 15.676 7.20261 15.4286 7.50398 15.0872C7.03626 14.8731 6.82146 14.3302 7.02464 13.8587C7.10574 13.671 7.24119 13.5229 7.40513 13.4234C6.25094 13.3043 5.20415 12.8264 4.37982 12.1064C4.5385 12.5774 4.30179 13.0948 3.82902 13.2831Z" fill="white"/>
<path d="M3.84135 4.63381L3.79182 4.5696L3.83894 4.5216C3.34974 4.71014 2.79653 4.47619 2.59949 3.99424C2.50349 3.75965 2.51029 3.5097 2.59796 3.29176C2.12059 3.25954 1.64804 3.36657 1.2373 3.59057C1.16563 4.29046 1.39927 5.01522 1.94327 5.55143C1.96607 5.57414 1.98974 5.59597 2.01363 5.61738C1.98777 5.61673 1.9619 5.61543 1.9356 5.61543C1.19675 5.61522 0.535053 5.93738 0.0839844 6.44614C0.21856 6.86516 0.467546 7.247 0.810998 7.54278C1.05056 7.13522 1.56519 6.95749 2.01604 7.14668C2.25494 7.24678 2.43116 7.43143 2.52453 7.65024L2.56881 7.64268C2.66656 6.50041 3.12903 5.45997 3.84135 4.63381Z" fill="white"/>
<path d="M7.48437 2.76479L7.49621 2.68155H7.51067C7.05807 2.46079 6.85226 1.9276 7.05259 1.46338C7.15802 1.21863 7.35594 1.04068 7.58848 0.951601C7.27374 0.582304 6.85731 0.318952 6.39813 0.185547C5.83594 0.630304 5.47495 1.31203 5.47473 2.07852C5.47473 2.11052 5.47605 2.1423 5.47714 2.1743C5.45961 2.15571 5.44185 2.1369 5.42366 2.11852C4.89961 1.60155 4.1978 1.3676 3.51265 1.41474C3.30706 1.81344 3.21325 2.26598 3.25314 2.72263C3.7121 2.60695 4.19802 2.84025 4.37994 3.28522C4.47374 3.51463 4.46958 3.75852 4.38717 3.97322L4.45862 4.02274C5.28974 3.32349 6.33566 2.86684 7.48437 2.76479Z" fill="white"/>
<path d="M13.3759 7.56771C13.6161 7.16122 14.1299 6.98436 14.5801 7.1729C14.8172 7.27236 14.9921 7.45528 15.0866 7.67193C15.4791 7.3649 15.7616 6.94998 15.907 6.48966C15.4561 5.9303 14.7615 5.57095 13.9808 5.57095C13.9484 5.57095 13.9162 5.57203 13.8842 5.57333C13.9026 5.55582 13.9221 5.53852 13.9405 5.52036C14.4748 4.99322 14.7107 4.28382 14.6502 3.59495C14.2329 3.39106 13.7588 3.30414 13.283 3.3569C13.4438 3.8289 13.2073 4.34825 12.7328 4.53679C12.506 4.62717 12.2649 4.62414 12.0512 4.54847L12.0439 4.55928C12.7769 5.37895 13.261 6.42025 13.3759 7.56771Z" fill="white"/>
<path d="M15.0822 8.42871C14.8696 8.90006 14.3128 9.11844 13.8298 8.91563C13.6362 8.83455 13.4848 8.6979 13.384 8.53271C13.2921 9.65163 12.8514 10.6745 12.168 11.4942C12.612 11.4069 13.0703 11.6391 13.2459 12.0683C13.3357 12.2882 13.3353 12.5215 13.2632 12.7295C13.757 12.7837 14.2497 12.6871 14.6787 12.4648C14.7554 11.7604 14.5204 11.0296 13.9733 10.4893C13.9503 10.4668 13.9264 10.4449 13.903 10.4233C13.9291 10.4237 13.9545 10.425 13.9808 10.425C14.7407 10.4253 15.4186 10.0847 15.8692 9.55087C15.7228 9.11671 15.453 8.72449 15.0822 8.42871Z" fill="white"/>
<path d="M3.17285 8.57715C3.26754 9.50558 3.63488 10.356 4.19313 11.0502L5.70765 8.92591L3.17285 8.57715Z" fill="white"/>
<path d="M12.76 7.49979C12.643 6.57935 12.2594 5.73979 11.6862 5.05957L10.1982 7.14714L12.76 7.49979Z" fill="white"/>
<path d="M3.18359 7.53655L5.72825 7.09914L4.21329 5.12012C3.66074 5.79882 3.29209 6.62887 3.18359 7.53655Z" fill="white"/>
<path d="M11.7609 11.0426C12.3257 10.3375 12.6926 9.47199 12.7787 8.52734L10.1777 8.97448L11.7609 11.0426Z" fill="white"/>
<path d="M8.48926 12.8296C9.45255 12.7286 10.3319 12.3472 11.0418 11.769L8.85375 10.251L8.48926 12.8296Z" fill="white"/>
<path d="M10.9263 4.33571C10.2317 3.80425 9.38724 3.45463 8.46582 3.3623L8.90374 5.8423L10.9263 4.33571Z" fill="white"/>
<path d="M7.39844 3.37305C6.48688 3.48051 5.65312 3.83943 4.96973 4.37759L7.05214 5.82256L7.39844 3.37305Z" fill="white"/>
<path d="M4.92285 11.7815C5.63014 12.353 6.50488 12.7307 7.46203 12.8306L7.00329 10.2314L4.92285 11.7815Z" fill="white"/>
</g>
<defs>
<clipPath id="clip0_549_1093">
<rect width="16" height="16" fill="white"/>
</clipPath>
</defs>
</svg>
