<svg width="40" height="40" viewBox="0 0 40 40" fill="none" xmlns="http://www.w3.org/2000/svg">
<path d="M12.8004 2.40039C7.06439 2.40039 2.40039 7.06439 2.40039 12.8004V27.2004C2.40039 32.9364 7.06439 37.6004 12.8004 37.6004H27.2004C32.9364 37.6004 37.6004 32.9364 37.6004 27.2004V12.8004C37.6004 7.06439 32.9364 2.40039 27.2004 2.40039H12.8004ZM29.6004 8.80039C30.4804 8.80039 31.2004 9.52039 31.2004 10.4004C31.2004 11.2804 30.4804 12.0004 29.6004 12.0004C28.7204 12.0004 28.0004 11.2804 28.0004 10.4004C28.0004 9.52039 28.7204 8.80039 29.6004 8.80039ZM20.0004 11.2004C24.8564 11.2004 28.8004 15.1444 28.8004 20.0004C28.8004 24.8564 24.8564 28.8004 20.0004 28.8004C15.1444 28.8004 11.2004 24.8564 11.2004 20.0004C11.2004 15.1444 15.1444 11.2004 20.0004 11.2004ZM20.0004 12.8004C16.0324 12.8004 12.8004 16.0324 12.8004 20.0004C12.8004 23.9684 16.0324 27.2004 20.0004 27.2004C23.9684 27.2004 27.2004 23.9684 27.2004 20.0004C27.2004 16.0324 23.9684 12.8004 20.0004 12.8004Z" fill="#C53727"/>
</svg>
