<svg width="120" height="90" viewBox="0 0 120 90" fill="none" xmlns="http://www.w3.org/2000/svg">
<g clip-path="url(#clip0_516_1198)">
<path d="M99.996 68.8999C100.007 59.9002 100.011 54.8331 99.996 48.7648C99.959 48.3663 100.004 47.9646 100.129 47.5844C100.254 47.2042 100.455 46.8536 100.721 46.5545C100.987 46.2554 101.311 46.0141 101.674 45.8456C102.037 45.677 102.43 45.5849 102.83 45.5748C103.525 45.5858 104.189 45.8606 104.689 46.3435C105.188 46.8263 105.485 47.481 105.52 48.1749C106.469 55.2355 107.575 62.2552 108.254 63.9054C108.317 64.104 108.44 64.2783 108.605 64.4045C108.771 64.5306 108.972 64.6025 109.18 64.6103C109.348 64.6031 109.513 64.5579 109.662 64.478C109.81 64.3981 109.939 64.2857 110.038 64.1491C110.137 64.0125 110.204 63.8553 110.234 63.6892C110.263 63.5231 110.255 63.3525 110.21 63.19C108.935 57.8446 107.744 50.5949 107.174 46.5201C116.694 55.7906 118.743 56.5453 118.134 64.2609C117.689 69.9057 115.534 76.8015 119.998 85.5365L107.185 89.997C106.882 88.4269 106.495 86.8115 106.055 85.3323C103.484 76.7273 99.9854 76.5715 99.996 68.8968V68.8999ZM17.1636 45.5748C16.4691 45.5858 15.8047 45.8606 15.3053 46.3435C14.8059 46.8263 14.5089 47.481 14.4744 48.1749C13.5246 55.2355 12.419 62.2552 11.7399 63.9054C11.677 64.104 11.5544 64.2783 11.3887 64.4045C11.223 64.5306 11.0223 64.6025 10.8142 64.6103C10.6456 64.6031 10.4809 64.5579 10.3322 64.478C10.1836 64.3981 10.055 64.2857 9.9559 64.1491C9.85684 64.0125 9.78995 63.8553 9.76022 63.6892C9.73049 63.5231 9.73869 63.3525 9.78422 63.19C11.0592 57.8446 12.2496 50.5949 12.8198 46.5201C3.30023 55.7906 1.24931 56.5453 1.86035 64.2609C2.31409 69.9012 4.46484 76.7954 0 85.5304L12.8092 89.997C13.1117 88.4269 13.4989 86.8115 13.939 85.3323C16.5102 76.7273 20.0086 76.5715 19.998 68.8968C19.9874 59.8971 19.9829 54.8301 19.998 48.7617C20.035 48.3633 19.9898 47.9615 19.8651 47.5813C19.7404 47.2011 19.5389 46.8506 19.2731 46.5515C19.0074 46.2524 18.683 46.0111 18.3201 45.8426C17.9572 45.674 17.5636 45.5818 17.1636 45.5718V45.5748ZM95.0003 61.9709C84.7591 62.646 74.6615 64.7413 64.9972 68.1965V18.8147L65.2816 18.6347C71.8367 14.5508 81.996 11.8282 94.9957 10.6181V48.7859C94.9741 47.6914 95.1703 46.6034 95.5727 45.5853C95.9752 44.5672 96.5759 43.6392 97.3401 42.8552C98.3189 41.866 99.5482 41.1616 100.897 40.8171C102.245 40.4726 103.661 40.5011 104.995 40.8995V0C87.8054 0.524856 71.0169 3.28981 59.997 10.1508C48.9771 3.28981 32.1886 0.524856 14.9992 0V40.901C16.3326 40.5031 17.7491 40.4749 19.0972 40.8193C20.4454 41.1638 21.6747 41.868 22.6539 42.8567C23.4174 43.6389 24.0179 44.5651 24.4204 45.5814C24.8228 46.5977 25.0193 47.6839 24.9982 48.7769V10.6196C37.998 11.8297 48.1573 14.5523 54.7124 18.6362L54.9967 18.8116V68.195C45.3351 64.7351 35.2385 62.6382 24.9982 61.9648V68.8893C24.9919 69.9299 24.9151 70.9689 24.7683 71.9991C36.0121 72.9641 46.6267 75.0741 54.9967 78.9039C56.5651 79.624 58.2705 79.9968 59.9962 79.9968C61.722 79.9968 63.4274 79.624 64.9957 78.9039C73.3718 75.0756 83.9864 72.9656 95.2256 71.9976C95.0786 70.9689 95.0018 69.9314 94.9957 68.8923L95.0003 61.9709ZM34.9987 49.8402C40.4437 51.3346 45.6088 53.0407 49.998 54.6804V60C45.1064 58.0041 40.0973 56.3094 34.9987 54.9254V49.8402ZM34.9987 44.7701C40.0973 46.1541 45.1064 47.8488 49.998 49.8447V44.5251C45.6118 42.8855 40.4391 41.1808 34.9987 39.6849V44.7701ZM34.9987 19.3199V24.4051C40.0966 25.7914 45.1056 27.486 49.998 29.4797V24.16C45.6118 22.5204 40.4391 20.8143 34.9987 19.3199ZM34.9987 34.6103C40.0973 35.9943 45.1064 37.689 49.998 39.6849V34.3698C45.6118 32.7302 40.4391 31.024 34.9987 29.5296V34.6103ZM85.0013 54.9254C79.9027 56.3094 74.8936 58.0041 70.002 60V54.6804C74.3882 53.0407 79.5609 51.3346 85.0013 49.8402V54.9254ZM85.0013 39.6849C79.5564 41.1793 74.3912 42.8855 70.002 44.5251V49.8447C74.8936 47.8493 79.9027 46.1551 85.0013 44.7716V39.6849ZM69.9975 24.16V29.4797C74.8905 27.4836 79.9012 25.7889 85.0013 24.4051V19.3199C79.5564 20.8158 74.3867 22.5204 69.9975 24.16ZM84.9967 29.5296C79.5518 31.024 74.3867 32.7302 69.9975 34.3698V39.6894C74.8905 37.6934 79.9012 35.9986 85.0013 34.6148L84.9967 29.5296Z" fill="#E65640"/>
</g>
<defs>
<clipPath id="clip0_516_1198">
<rect width="120" height="90" fill="white"/>
</clipPath>
</defs>
</svg>
