<svg width="75" height="90" viewBox="0 0 75 90" fill="none" xmlns="http://www.w3.org/2000/svg">
<g clip-path="url(#clip0_516_1211)">
<path d="M0 0V56.2497H74.9996V0H0ZM67.4994 48.7495H7.5002V7.5002H67.4994V48.7495ZM45 60.0004L50.9966 67.5006H24.0042L30.0008 60.0004H45ZM0 71.2501V90H74.9996V71.2501H0ZM35.6251 82.8745C35.1801 82.8745 34.7452 82.7426 34.3753 82.4954C34.0054 82.2482 33.7171 81.8969 33.5468 81.4859C33.3766 81.0748 33.332 80.6226 33.4188 80.1862C33.5056 79.7498 33.7198 79.349 34.0344 79.0344C34.349 78.7198 34.7498 78.5056 35.1862 78.4188C35.6226 78.332 36.0748 78.3766 36.4859 78.5468C36.8969 78.7171 37.2482 79.0054 37.4954 79.3753C37.7426 79.7452 37.8745 80.1801 37.8745 80.625C37.8745 80.9205 37.8163 81.213 37.7033 81.4859C37.5902 81.7588 37.4245 82.0068 37.2157 82.2157C37.0068 82.4245 36.7588 82.5902 36.4859 82.7033C36.213 82.8163 35.9205 82.8745 35.6251 82.8745ZM67.4994 82.4998H45V78.7503H67.4994V82.4998Z" fill="#E65640"/>
</g>
<defs>
<clipPath id="clip0_516_1211">
<rect width="74.9996" height="90" fill="white"/>
</clipPath>
</defs>
</svg>
